<svg version="1.1" id="Layer_1" xmlns="http://www.w3.org/2000/svg" xmlns:xlink="http://www.w3.org/1999/xlink" x="0px" y="0px"
	 width="100%" viewBox="0 0 1024 864" enable-background="new 0 0 1024 864" xml:space="preserve">
<path fill="#000000" opacity="1.000000" stroke="none" 
	d="
M528.410278,224.435333 
	C534.611023,226.110840 539.837769,229.731216 546.618042,230.099594 
	C544.517334,222.455978 541.056641,215.782974 540.356750,208.347336 
	C539.909912,203.599991 539.335388,198.864807 538.851807,194.120743 
	C538.553467,191.193756 540.297729,189.479355 542.578125,188.159760 
	C544.851807,186.844025 546.554626,187.889084 548.421936,189.335175 
	C557.518860,196.380249 565.033630,205.086578 573.429810,212.857590 
	C585.117798,223.675232 595.383972,235.840164 606.537231,247.161865 
	C611.770203,252.473831 615.888000,258.933228 621.358276,263.948700 
	C626.930176,269.057343 630.430969,276.287689 637.733521,279.629517 
	C641.157593,281.196411 642.784119,284.858521 645.404358,287.370636 
	C655.103882,296.669861 662.470764,307.690918 668.342834,319.590057 
	C673.726074,330.498505 675.791809,341.939850 669.855530,353.647583 
	C666.425964,360.411316 660.401062,363.370667 653.702209,365.059662 
	C647.131958,366.716217 641.004028,369.735168 634.067017,370.486420 
	C640.558533,382.069305 639.321289,388.109375 628.575806,397.716827 
	C635.096680,403.888306 643.560364,408.436096 646.414673,418.048431 
	C647.775024,409.820221 651.123413,402.159607 651.903137,393.823669 
	C652.221985,390.414368 653.641296,387.088989 654.718384,383.776886 
	C655.349060,381.837555 656.951721,380.901947 658.960022,380.845612 
	C670.907532,380.510529 682.831055,379.661743 694.786072,379.325592 
	C705.414307,379.026794 716.047302,378.803467 726.679626,378.709045 
	C733.271790,378.650482 739.671082,380.815552 746.390198,380.272675 
	C749.967957,379.983582 751.230652,382.597504 751.044312,386.363159 
	C750.496826,397.424316 746.355713,407.666290 744.155884,418.343445 
	C741.544006,431.020233 738.297302,443.567596 735.246094,456.151764 
	C733.878906,461.790619 732.400269,467.405762 730.821655,472.989136 
	C729.221924,478.647400 731.569519,481.380432 737.414368,480.549683 
	C747.328857,479.140442 757.225098,479.369995 767.198425,480.296448 
	C773.733948,480.903534 780.382751,480.331879 786.970032,480.280792 
	C794.596558,480.221619 796.027649,480.995209 795.325317,488.311340 
	C793.694336,505.302521 791.335510,522.258484 790.550964,539.287720 
	C789.501953,562.057312 785.890564,584.543762 784.226379,607.230896 
	C783.910095,611.541565 786.208069,611.902588 789.340393,611.892456 
	C797.831299,611.864807 806.322266,611.827820 814.813171,611.833008 
	C817.841614,611.834900 820.773926,612.159668 822.795837,615.386353 
	C817.914062,620.018616 811.906067,618.328552 806.588135,618.449829 
	C789.850342,618.831238 773.098145,618.639771 756.351990,618.569580 
	C748.887695,618.538330 741.423828,618.290100 733.961060,618.091675 
	C731.407715,618.023804 729.595154,616.675537 728.327698,614.193359 
	C724.749512,617.540344 720.462036,618.270935 715.866089,618.150452 
	C701.106140,617.763367 686.351196,618.445312 671.607239,618.524536 
	C659.734375,618.588379 647.755737,618.422974 635.903320,618.442627 
	C613.484741,618.479736 591.113586,616.067261 568.633423,617.861694 
	C553.960266,619.032959 539.123352,618.143188 524.359863,618.193970 
	C508.784668,618.247559 493.197083,617.571289 477.652283,617.740784 
	C465.219391,617.876404 452.688477,618.464844 440.273254,618.501953 
	C424.426239,618.549316 408.540985,619.421448 392.606812,617.995117 
	C385.450073,617.354431 377.801453,618.295044 370.363129,618.283508 
	C359.427307,618.266479 348.490234,618.539734 337.555573,618.452393 
	C320.769775,618.318359 303.997284,617.924927 287.199585,618.569946 
	C278.928925,618.887512 270.592194,618.219482 262.272278,618.294739 
	C246.449799,618.437744 230.623840,618.431152 214.802292,618.241089 
	C211.754639,618.204468 206.525131,619.382568 206.427612,615.288330 
	C206.314255,610.529175 211.809967,611.490479 214.808701,611.882935 
	C224.831573,613.194641 232.415680,606.596802 241.619095,604.919434 
	C240.494614,602.329041 238.642395,601.307251 236.747498,600.242798 
	C232.772324,598.009766 230.412064,594.372192 228.890808,590.246460 
	C227.508438,586.497253 230.405701,583.201416 235.303635,582.877441 
	C241.175034,582.489075 246.892914,583.489563 252.620895,585.310608 
	C253.711304,582.162354 254.732391,579.044861 255.871933,575.971375 
	C257.033447,572.838623 259.127533,572.201904 262.233795,573.431274 
	C270.351410,576.644104 274.585693,583.853455 279.493652,590.256104 
	C281.137665,592.400879 282.148438,593.868347 284.961914,592.677063 
	C293.258240,589.164307 301.953064,586.764954 310.677063,584.782898 
	C320.889526,582.462708 327.092773,575.083374 333.719208,568.207581 
	C346.795166,554.639343 356.256165,538.136597 368.901154,524.236633 
	C372.632141,520.135376 375.546173,516.244019 375.285736,510.251862 
	C369.574066,512.382080 365.243500,516.745789 359.805603,519.107178 
	C357.980560,519.899719 356.243073,520.906311 354.390961,521.622009 
	C349.435760,523.536865 346.731964,522.130188 344.556396,517.426208 
	C341.290497,510.364563 342.344940,503.107483 343.189026,495.884277 
	C343.492798,493.284912 345.640320,491.526947 348.136108,490.685516 
	C356.786774,487.769104 365.420807,484.418304 374.461670,483.347900 
	C379.667694,482.731537 380.040039,480.550781 379.529846,476.330292 
	C369.953430,475.755737 360.603302,476.705017 351.325165,478.397217 
	C347.056885,479.175720 342.832123,479.474304 339.630554,476.185852 
	C336.693329,473.168915 337.998840,469.449005 338.878021,465.800568 
	C339.965240,461.288696 340.951477,456.800018 342.806671,452.497986 
	C344.696198,448.116272 347.266968,445.593872 352.514221,445.536438 
	C363.586151,445.415314 374.438568,446.704285 385.136444,449.359955 
	C387.191833,449.870178 388.787872,450.328003 389.382202,447.817047 
	C389.977936,445.300201 388.095306,444.808289 386.225555,444.284210 
	C377.030090,441.706818 367.814972,439.190765 358.673248,436.432831 
	C350.331482,433.916290 347.900940,427.888245 351.346069,419.720673 
	C353.097015,415.569427 355.055969,411.627472 357.604523,407.879181 
	C360.794617,403.187256 365.343506,401.293182 370.318329,403.680084 
	C378.101471,407.414398 385.911530,411.121674 393.130157,415.921082 
	C400.377380,420.739471 400.569916,420.654663 402.905182,411.817200 
	C399.332275,408.789459 394.781281,407.475800 390.663574,405.394806 
	C384.666870,402.364166 379.387848,398.384125 374.195038,394.188538 
	C369.955933,390.763550 368.697266,386.691376 371.047485,381.860474 
	C374.016510,375.757629 376.801605,369.481323 383.358673,366.042511 
	C386.619110,364.332611 389.361511,364.291260 392.714172,366.060516 
	C402.188171,371.060028 409.574127,378.364624 416.438599,386.347961 
	C417.060150,387.070801 417.851624,387.647583 418.528564,388.259979 
	C423.690094,384.199799 424.954346,379.594330 423.081635,373.308380 
	C421.692505,368.645721 422.008118,363.472443 421.066315,358.570129 
	C420.682983,356.574677 421.477692,354.521912 423.602020,353.580048 
	C425.551331,352.715790 427.219116,353.745667 428.645386,354.903625 
	C430.985535,356.803589 431.830841,359.536377 432.150177,362.400482 
	C432.353546,364.224060 432.273743,366.077667 433.472046,367.502899 
	C438.896942,362.258484 444.326874,357.009186 449.755371,351.761292 
	C445.347839,340.571960 441.602814,329.200531 442.151733,317.326202 
	C442.751831,304.345337 444.446472,291.315918 453.977539,280.986725 
	C455.743347,279.073059 456.790527,276.495087 458.162262,274.219391 
	C458.850647,273.077423 458.793701,271.847748 457.878632,270.988739 
	C454.940704,268.230896 453.345184,264.513428 450.686401,261.492889 
	C440.493591,249.913300 430.208984,238.393799 420.875305,226.086136 
	C419.973724,224.897308 419.183472,223.602127 418.500427,222.274582 
	C417.424957,220.184296 417.386780,218.105927 419.092224,216.261368 
	C420.684082,214.539597 422.599609,214.580765 424.611755,215.340179 
	C428.644592,216.862213 432.665009,218.417343 436.704468,219.921463 
	C445.321075,223.129868 453.946564,226.314468 462.537628,229.497406 
	C463.978943,227.257065 463.328461,225.443344 462.533600,223.555038 
	C461.828613,221.880295 461.147461,220.149017 460.807465,218.375290 
	C459.461945,211.355530 460.538635,210.057480 467.460999,211.253891 
	C483.600220,214.043259 499.723053,216.945923 515.793030,220.105331 
	C519.988831,220.930237 523.966370,222.864899 528.410278,224.435333 
M648.580322,452.666443 
	C647.486389,459.385284 646.519165,466.128174 645.249084,472.813538 
	C644.532776,476.584045 642.773315,478.903748 638.233887,476.863403 
	C636.036865,475.875885 633.435303,475.971771 630.895752,476.014618 
	C624.272156,476.126373 617.641785,475.810547 611.013672,475.687439 
	C604.590515,475.568115 598.055542,474.702148 591.776550,475.604095 
	C586.195679,476.405731 580.706238,477.509247 575.023804,477.528076 
	C572.971436,477.534851 570.733276,477.765503 569.026794,479.223511 
	C568.592896,482.535553 569.942627,484.050171 573.170288,483.957825 
	C589.955811,483.477295 606.741943,483.016602 624.208252,482.530060 
	C623.459656,478.169647 626.248657,477.323486 629.551147,477.148834 
	C633.192505,476.956238 635.474426,478.526581 635.334656,482.339264 
	C637.736267,482.155945 638.973328,481.224792 640.084534,479.840332 
	C641.184875,478.469482 643.143860,478.157990 643.913940,479.673218 
	C645.885620,483.552917 649.673950,482.475067 652.188232,482.228943 
	C669.788086,480.506195 687.313416,482.993530 704.869873,482.671997 
	C707.694519,482.620209 710.627258,482.273010 713.328857,482.875153 
	C721.285828,484.648712 723.595520,480.681519 724.890625,473.853607 
	C726.771667,463.936554 728.407593,453.918579 731.169617,444.235016 
	C736.096313,426.961914 739.329163,409.343597 743.112427,391.831390 
	C743.975952,387.834320 742.789246,386.388519 738.714722,386.342255 
	C715.788025,386.081879 692.881165,386.312775 670.005005,388.078796 
	C667.531616,388.269745 666.645569,389.196564 666.219482,391.614716 
	C663.758118,405.584595 660.830872,419.477173 658.605347,433.482391 
	C656.599426,446.105621 653.801575,458.624481 653.064392,471.440277 
	C652.960327,473.249603 652.615967,475.092468 652.058167,476.814697 
	C651.522949,478.466980 650.376038,479.904846 648.335388,479.254395 
	C646.454468,478.654877 646.157410,477.151550 646.392517,475.238129 
	C647.342896,467.503967 648.139099,459.750854 649.326477,451.323761 
	C651.532532,442.748291 651.680115,433.815887 653.857422,425.232758 
	C650.558594,433.866150 649.882080,442.967987 648.580322,452.666443 
M582.570923,342.092285 
	C578.730530,344.701294 575.308899,347.948914 570.764221,349.474915 
	C568.520386,350.228394 566.672363,350.684631 565.294922,348.027039 
	C563.959961,345.451416 561.636108,346.187988 559.584473,346.920776 
	C556.683167,347.957092 553.732178,348.219116 550.725647,347.823944 
	C549.322815,347.639526 548.135315,346.814484 548.022034,345.299347 
	C547.897156,343.629730 549.199097,343.088409 550.590820,342.791687 
	C555.123291,341.825500 559.639343,340.772583 564.192627,339.917511 
	C567.598022,339.277985 570.573425,338.986084 569.903259,333.931183 
	C569.453613,330.540100 572.690979,328.363953 575.744324,328.272705 
	C579.584900,328.157928 577.623657,331.587036 577.916138,333.906006 
	C583.836487,329.837646 590.651245,327.097778 593.310730,319.426208 
	C590.216858,318.081848 587.616577,316.527374 584.148132,317.167328 
	C576.638489,318.552887 568.984619,317.948303 561.448792,317.687653 
	C542.519348,317.032837 523.612549,315.724213 504.484985,314.666046 
	C505.107178,322.729370 508.972351,329.296295 515.318542,333.443665 
	C523.208679,338.600098 531.825073,342.840179 541.756653,342.799530 
	C543.709167,342.791534 545.697327,343.316925 545.531128,345.728119 
	C545.390503,347.768097 543.527344,348.084381 541.753479,348.170959 
	C530.037476,348.742767 518.923950,346.548706 508.518341,341.025055 
	C507.140015,340.293396 505.279633,339.146790 506.001038,337.781830 
	C508.193726,333.633179 505.162781,331.425903 503.373871,328.600311 
	C500.801971,324.538025 497.993103,320.529724 498.727417,315.250000 
	C499.000397,313.287567 498.287170,311.809845 496.119720,311.026917 
	C489.704529,308.709564 485.502686,303.290375 481.721191,298.341919 
	C476.484192,291.488861 469.375031,286.406158 465.099609,278.337585 
	C462.521423,281.478455 459.919067,283.443756 457.956726,286.223206 
	C450.900909,296.216919 447.992981,307.320801 448.667725,319.357483 
	C449.129547,327.595581 450.081573,335.769257 453.899445,343.372986 
	C458.267273,352.071991 458.068939,352.105072 452.458588,358.417725 
	C443.988983,367.947601 435.041199,377.118958 427.289337,387.205597 
	C413.766113,404.801910 404.432220,424.785828 396.471161,445.417511 
	C392.215210,456.447113 389.395538,467.882507 386.948425,479.412598 
	C383.555450,495.399323 381.567810,511.574310 380.908539,527.903320 
	C380.798157,530.638062 380.702667,533.528748 378.299622,535.071167 
	C375.298920,536.997314 375.170715,532.366821 372.957123,532.060059 
	C369.553864,534.211548 367.724701,537.708740 365.247742,540.575745 
	C357.875061,549.109253 350.666321,557.787109 343.508453,566.502991 
	C336.136108,575.479980 329.036957,584.587952 317.722198,589.224426 
	C297.647217,597.450684 276.439606,601.685181 255.577927,607.081360 
	C250.688141,608.346130 246.358002,610.995972 241.285248,611.437256 
	C248.332062,612.327332 255.298325,611.856384 262.266846,611.809509 
	C283.867615,611.664124 305.469299,611.654724 327.070648,611.594971 
	C331.723572,611.582153 336.376465,611.570190 341.029388,611.573608 
	C353.657410,611.582886 366.287262,611.729797 378.912567,611.551514 
	C383.973175,611.480042 386.586609,608.205933 386.001038,603.103088 
	C384.552704,590.482239 388.596802,579.043274 393.000610,567.197327 
	C392.798187,567.057373 392.174347,566.560913 391.491913,566.165710 
	C389.226807,564.853943 386.694519,563.062439 388.238373,560.393188 
	C389.656067,557.942078 392.037994,560.110718 393.904388,560.975342 
	C403.580139,565.457764 414.118073,565.886230 424.419769,567.016724 
	C430.967041,567.735291 437.678131,566.900146 444.316223,566.867676 
	C452.485809,566.827759 452.591492,567.004517 450.845734,574.908020 
	C450.774048,575.232483 450.648163,575.544495 450.562256,575.866211 
	C447.757355,586.368530 449.472534,596.990601 449.737518,607.572632 
	C449.822937,610.984558 451.829651,611.992676 455.007721,611.990906 
	C468.581757,611.983337 482.156982,612.039185 495.729218,612.242493 
	C498.833679,612.289001 501.828491,612.318542 505.214661,611.154053 
	C504.051514,609.920227 503.276733,609.081726 502.483673,608.260925 
	C501.128876,606.858643 499.933716,605.276428 501.623718,603.510498 
	C503.203247,601.859863 505.160675,602.562195 506.586121,603.799500 
	C508.328491,605.311951 509.778961,607.165344 511.323120,608.900269 
	C514.361816,612.314453 516.026245,612.679993 520.534607,610.832336 
	C520.282654,610.598022 520.072632,610.334473 519.803772,610.163391 
	C517.606201,608.765198 514.777283,607.956909 514.609070,604.664185 
	C514.560181,603.706299 515.145264,603.056641 516.035767,602.890503 
	C519.132507,602.312988 520.910522,604.316467 522.799438,606.289551 
	C523.929016,607.469360 525.444458,608.271057 526.731934,609.310303 
	C528.477356,610.719299 530.021545,612.708618 532.753601,611.093994 
	C532.021423,608.731079 530.031555,607.662231 528.373901,606.375305 
	C523.516785,602.604492 521.614746,598.092590 523.521362,591.917603 
	C524.333191,589.288269 525.320496,586.644043 525.379028,583.696655 
	C525.526367,576.276794 526.553528,568.857483 526.419373,561.452698 
	C526.194275,549.031738 523.465942,537.568848 512.635864,529.447144 
	C506.489868,524.838196 499.381012,523.351868 492.263580,521.821106 
	C478.871338,518.940735 465.338470,514.584106 452.325378,523.255005 
	C452.193237,523.343079 452.007751,523.349731 451.848389,523.398376 
	C433.479492,529.000977 415.535980,521.493164 408.030365,503.820038 
	C401.709991,488.937866 401.923035,472.704407 401.508270,456.773132 
	C401.464722,455.100647 402.144531,453.231720 404.278198,453.264526 
	C406.356201,453.296478 406.849670,455.102020 407.077881,456.811249 
	C407.209229,457.794739 407.157532,458.807037 407.139709,459.805450 
	C406.928253,471.659058 408.544373,483.336884 411.646606,494.701263 
	C413.051575,499.848022 413.943085,505.627625 418.397186,509.463165 
	C428.714935,518.348083 439.841705,521.857300 453.285858,516.149536 
	C463.085907,511.988861 472.886322,508.034485 482.181305,502.726501 
	C492.346588,496.921539 503.273102,492.445374 512.538574,485.083252 
	C514.191040,483.770233 515.900757,483.756714 517.595520,484.972565 
	C519.218323,486.136871 520.863342,487.282745 522.389160,488.566711 
	C524.398682,490.257812 528.507202,491.564148 526.244690,494.830811 
	C524.359497,497.552643 521.143555,495.253906 518.664673,494.004456 
	C518.518250,493.930634 518.403503,493.796539 518.262451,493.709076 
	C515.276794,491.856812 513.935120,493.445526 513.340027,496.186646 
	C512.511353,500.003723 514.383484,502.391693 518.807617,502.748444 
	C524.291199,503.190613 529.781006,503.169006 535.187439,501.758484 
	C538.344788,500.934692 540.151917,499.220764 539.951172,495.780273 
	C539.863953,494.285339 539.979675,492.775299 539.841553,491.287170 
	C539.382812,486.345032 542.056152,484.171448 546.550171,483.940277 
	C550.532471,483.735443 554.534119,483.910980 558.527222,483.910126 
	C561.338501,483.909515 563.212036,482.939117 562.318909,479.707367 
	C561.066345,475.175385 563.403503,473.281311 567.347473,472.231415 
	C571.800964,471.045837 576.353394,470.506592 580.813782,470.182037 
	C581.247375,468.569397 580.447632,467.620758 580.033875,466.553497 
	C577.011597,458.757019 572.481506,451.786224 568.123352,444.720825 
	C567.158142,443.156097 565.879944,441.526703 566.920044,439.659576 
	C568.068909,437.597290 569.746765,438.955231 571.314941,439.300995 
	C572.192322,439.494385 573.279114,439.177521 574.163879,438.822235 
	C578.282410,437.168152 581.515259,438.802399 584.768982,441.214569 
	C588.850342,444.240356 591.522400,448.496826 594.885681,452.143646 
	C596.454346,453.844574 597.875366,455.157654 600.420471,453.736145 
	C605.453796,450.924774 610.589661,448.297028 615.402039,445.742584 
	C615.795166,443.475342 614.438904,442.542816 613.606079,441.342529 
	C609.240479,435.050476 603.782593,429.703247 598.753479,423.979919 
	C595.067322,419.784943 590.770264,416.497833 585.880981,413.992981 
	C579.506287,410.727112 573.703430,411.578979 568.447876,416.371643 
	C564.750610,419.743225 561.150452,423.278473 558.570740,427.582581 
	C556.925415,430.327606 554.651489,431.629303 551.729553,431.920898 
	C534.870605,433.603485 518.960449,439.034607 503.325775,444.993774 
	C492.824036,448.996521 481.769409,452.120667 472.514587,458.953461 
	C465.377472,464.222717 456.433533,466.104492 449.368652,471.503510 
	C448.046509,472.513916 446.310455,473.153168 444.811707,471.655212 
	C443.207031,470.051422 444.138550,468.587311 445.378418,467.328339 
	C446.332336,466.359650 446.484070,465.464539 445.888489,464.213898 
	C441.919189,455.878662 440.701752,446.787811 438.531830,437.937164 
	C436.975250,431.587982 437.014008,423.953918 428.859650,421.178467 
	C427.444458,420.696747 427.213776,419.120728 427.749695,417.737732 
	C428.314636,416.279999 429.540558,415.721008 430.994659,416.205750 
	C434.966339,417.529816 438.552094,419.025757 440.584808,423.398834 
	C443.130707,428.875916 445.237854,434.457672 446.494843,441.359467 
	C447.964844,438.491699 448.874603,436.731232 449.771423,434.964172 
	C451.390289,431.774323 452.454773,431.688690 455.560455,434.274811 
	C459.399200,437.471344 462.949158,441.552063 468.220612,443.401306 
	C469.652069,441.092072 470.790619,439.071869 472.109558,437.177216 
	C473.533020,435.132477 475.046051,433.137695 476.661255,431.241455 
	C479.511993,427.894806 479.622833,420.253448 476.688751,416.390076 
	C476.269287,416.940002 475.861053,417.453705 475.475769,417.984070 
	C474.145752,419.814789 472.892792,422.849213 470.296783,421.443237 
	C467.480652,419.918121 469.793701,417.274811 470.601257,415.283875 
	C475.324799,403.638275 480.329071,392.102905 484.845062,380.378754 
	C486.366364,376.429199 487.184448,372.071594 487.518585,367.836914 
	C487.928497,362.642334 488.644653,361.796509 493.720306,363.237366 
	C505.192291,366.493835 516.618835,369.788879 528.575867,371.094330 
	C533.979492,371.684265 539.674011,371.940887 545.377441,374.607513 
	C541.702087,380.071869 533.062744,380.457733 533.066162,388.579803 
	C540.158203,392.450989 545.635132,398.470703 551.028992,404.492798 
	C554.024170,407.836853 557.654602,411.278717 555.491150,416.756714 
	C555.231201,417.414978 554.916443,419.022125 556.542542,419.807526 
	C561.573669,412.149536 568.926086,407.729309 577.919006,405.190613 
	C573.898254,402.693481 571.727600,399.788116 570.464417,395.629791 
	C568.601074,389.495514 565.505859,383.977264 558.319519,382.289490 
	C556.272156,381.808655 554.437805,380.419220 552.507019,379.444031 
	C551.245544,378.806885 550.062439,377.996429 550.757690,376.383423 
	C551.413391,374.862305 552.843994,374.969482 554.209839,375.274811 
	C559.602905,376.480316 564.936401,377.796814 569.050781,381.898834 
	C572.273132,385.111389 575.865540,385.552460 580.009399,383.576843 
	C584.064026,381.643707 588.368225,380.160248 591.918457,377.340973 
	C595.659607,374.370117 598.486816,377.961456 601.557739,378.710571 
	C604.076599,379.325043 603.110229,382.212799 602.709717,384.374420 
	C601.744202,389.584412 604.648132,393.519684 609.680603,395.159454 
	C617.698120,397.771851 623.003540,393.307678 628.356506,388.660919 
	C631.833069,385.643005 631.663574,381.746002 630.025024,378.178680 
	C628.314880,374.455444 625.688049,371.750977 620.609802,372.644501 
	C615.840454,373.483704 611.943420,375.940735 607.737610,377.887512 
	C605.236755,379.045135 603.043823,378.390076 601.773254,375.980438 
	C600.391296,373.359375 602.352966,372.074127 604.275085,370.858978 
	C608.737122,368.038055 613.648499,366.544128 618.857666,366.217072 
	C634.064209,365.262329 648.141724,360.822998 661.287598,353.144348 
	C663.718323,351.724518 664.860596,349.814941 665.542236,347.344879 
	C667.334900,340.849060 666.640381,334.520630 664.204529,328.327606 
	C657.666687,311.704956 645.636353,299.102661 633.549255,286.552948 
	C626.173096,278.894440 616.687988,274.294922 607.749634,268.903839 
	C602.643250,265.823975 597.760193,262.313354 592.453247,259.638306 
	C579.270020,252.993134 565.946472,246.620453 552.592834,240.321396 
	C541.801208,235.230865 530.953003,230.151810 519.241882,227.516449 
	C509.382782,225.297836 499.435089,223.449203 489.486725,221.658386 
	C482.199799,220.346649 474.848267,219.394043 467.018921,218.204407 
	C467.219116,224.861954 468.627899,231.002686 473.923065,234.078934 
	C483.511200,239.649185 493.984375,243.644302 504.066742,248.284988 
	C524.218994,257.560577 542.850037,269.356018 561.794067,280.654236 
	C575.218323,288.660522 586.986206,299.008667 599.348145,308.512512 
	C602.199280,307.703003 603.308594,304.985596 605.355896,303.371216 
	C606.309204,302.619446 607.406128,302.117920 608.587097,302.776672 
	C609.621216,303.353455 609.587708,304.358704 609.383179,305.405151 
	C608.654663,309.132233 601.426331,316.313202 597.842712,316.860840 
	C598.515503,328.440369 590.632812,334.932678 582.570923,342.092285 
M786.697754,513.234192 
	C786.697754,504.812805 786.697754,496.391449 786.697754,487.317902 
	C780.559265,487.804565 774.062073,485.718536 767.491577,486.098389 
	C760.382324,486.509369 753.322632,487.113678 746.160339,488.464386 
	C734.364624,490.688873 721.840576,489.127594 709.624695,489.021759 
	C700.839539,488.945679 692.056885,488.512268 683.272034,488.472931 
	C673.644287,488.429779 664.012939,488.558685 654.387512,488.793335 
	C645.265442,489.015686 636.125122,488.765900 627.031799,489.063049 
	C614.391235,489.476074 601.727844,489.443512 589.102722,489.651093 
	C576.577271,489.857025 563.971191,490.061768 551.417664,489.452332 
	C548.536804,489.312500 547.166504,490.522705 547.212158,493.033447 
	C547.293701,497.514587 546.726440,501.950287 546.766541,506.445374 
	C546.874573,518.569763 549.345276,530.433105 550.087341,542.476379 
	C550.586365,550.576111 551.228210,558.697571 551.958435,566.748657 
	C553.050720,578.790710 554.644409,590.797974 555.080811,602.901245 
	C555.316406,609.437866 555.624634,609.897644 562.245483,609.936096 
	C570.715149,609.985352 579.193604,609.775208 587.652954,610.088196 
	C606.054688,610.769165 624.430054,611.968079 642.867371,611.828674 
	C665.101868,611.660522 687.325867,611.332397 709.526428,610.063416 
	C712.972473,609.866455 716.986755,611.568176 719.718689,609.530090 
	C722.830322,607.208801 720.658569,602.971191 720.999146,599.590393 
	C721.065735,598.928772 721.270813,598.279419 721.317322,597.617737 
	C722.023376,587.565491 722.755737,577.514771 723.395996,567.458252 
	C724.090820,556.545593 724.846497,545.633362 725.295776,534.709473 
	C725.696960,524.956116 727.880188,515.327515 726.951904,505.471832 
	C726.316895,498.729858 728.138000,495.884399 733.247192,495.966370 
	C745.320312,496.159973 757.348938,494.371185 769.454956,495.505493 
	C772.938660,495.831970 776.281677,497.678192 780.113708,496.228912 
	C781.944336,495.536560 784.012329,497.275116 783.917053,499.757111 
	C783.833984,501.920746 781.902771,503.763153 780.310730,502.806854 
	C775.946899,500.185669 771.632324,502.528168 767.338257,502.127411 
	C758.243530,501.278503 749.123596,502.163147 740.013000,502.260956 
	C735.717224,502.307037 733.214355,503.368713 732.903870,508.324036 
	C732.715820,511.325684 733.069153,514.279663 732.844421,517.270020 
	C731.862061,530.340576 731.446960,543.463562 730.116394,556.495056 
	C729.119446,566.259094 729.530457,576.061707 728.381653,585.825134 
	C727.628479,592.225220 728.014893,598.776550 727.274719,605.245239 
	C727.033264,607.356018 727.717285,610.545959 730.577942,609.339600 
	C733.683044,608.030273 737.385803,607.497375 739.767273,604.643311 
	C746.669678,596.371216 763.707458,595.450378 771.417603,600.915649 
	C774.012817,598.625427 773.297424,594.567505 775.696228,592.408447 
	C777.362976,591.941101 776.962097,594.471741 778.303650,594.017517 
	C779.978699,582.375793 781.871155,570.903931 779.406677,559.217773 
	C778.860779,556.629456 779.080322,552.514954 780.694885,551.106995 
	C784.604919,547.697266 783.866455,542.980164 784.101990,539.406677 
	C784.660095,530.938171 785.955627,522.562622 786.697754,513.234192 
M496.762970,371.601807 
	C494.399506,371.093018 494.295410,373.068634 493.420319,374.429657 
	C489.150665,381.070435 487.913605,388.913879 484.682709,396.002014 
	C479.495148,407.382812 480.420929,409.088684 489.414673,418.031891 
	C495.607727,424.190155 501.454529,430.696686 507.607147,437.207397 
	C520.808289,429.538239 536.120911,428.794617 550.610352,425.651428 
	C550.407593,423.115021 549.781555,421.036774 550.183838,419.181549 
	C551.186646,414.557587 549.508545,411.358673 546.267334,408.160187 
	C541.418701,403.375519 535.853210,399.488098 530.822205,394.947510 
	C526.201233,390.776978 525.373657,387.819000 527.278931,382.182343 
	C528.006287,380.030518 530.389404,379.276093 531.295654,376.237152 
	C519.486633,376.866241 508.406036,374.585999 496.762970,371.601807 
M549.299927,605.586792 
	C546.487732,579.323242 543.953857,553.033447 541.934631,526.634644 
	C529.359802,522.797241 517.272888,517.619812 504.437866,514.781555 
	C502.748688,514.408081 500.610748,512.805054 499.830933,515.472229 
	C499.075836,518.054749 501.875580,517.883057 503.336975,518.697266 
	C508.813690,521.748657 515.205078,523.129150 519.961975,527.463501 
	C528.918884,535.624939 531.779358,546.468079 532.500793,557.958252 
	C533.134949,568.057983 532.731750,578.138916 530.571716,588.138916 
	C529.232361,594.339478 528.876709,600.553101 536.023682,604.230042 
	C537.668823,605.076477 539.019897,606.945435 539.940430,608.649475 
	C541.525391,611.583618 544.107544,611.928101 546.763611,611.579163 
	C549.755554,611.186096 548.907043,608.328552 549.299927,605.586792 
M636.055054,470.213715 
	C638.880920,470.737396 639.524475,468.936462 639.687012,466.729462 
	C640.335388,457.924561 642.166931,449.300415 643.646912,440.623352 
	C646.133301,426.045319 639.032288,412.549194 626.418396,405.193024 
	C619.933716,401.411255 613.504761,402.338806 607.123962,402.096893 
	C604.649109,407.188232 602.287598,412.046478 599.823669,417.115356 
	C603.125610,418.828430 604.856018,421.774994 607.240173,424.060303 
	C608.980713,425.728699 610.849915,427.790833 613.757629,425.961853 
	C617.013855,423.913666 619.957397,421.508148 622.186279,418.358398 
	C623.303406,416.779785 623.951355,414.138641 626.519470,415.665955 
	C629.289001,417.313110 627.885254,419.515259 626.672974,421.682770 
	C624.132141,426.225739 620.122070,429.460175 616.767334,432.806519 
	C618.763489,439.298126 627.728333,444.051300 620.090454,451.751312 
	C625.009583,459.405945 626.924316,460.013763 635.169495,456.774109 
	C636.622803,456.203064 638.519470,454.931488 639.582397,456.988159 
	C640.563110,458.885864 639.246948,460.822449 637.682007,461.632385 
	C633.685730,463.700653 629.835388,467.114807 624.768188,464.326080 
	C623.439331,463.594757 622.272522,464.096893 621.037170,464.814026 
	C615.210632,468.196198 608.732544,468.501526 602.238770,468.534210 
	C600.168701,468.544647 598.073242,468.092285 596.273010,469.900726 
	C598.397461,469.900726 600.198730,469.885864 601.999817,469.903168 
	C613.107788,470.009735 624.215759,470.123566 636.055054,470.213715 
M448.569489,453.792542 
	C448.846252,454.396423 449.100494,455.011871 449.403259,455.602448 
	C452.325165,461.302185 452.209076,461.010376 458.225586,458.558685 
	C464.094635,456.167053 469.286438,452.518066 475.014679,450.016724 
	C482.911011,446.568604 483.745453,444.912354 479.233490,436.760925 
	C475.651947,438.561890 473.940826,442.160919 471.560089,444.997009 
	C467.948578,449.299225 467.205414,449.595306 463.164642,445.955414 
	C460.270752,443.348633 457.395813,438.889648 453.475891,440.316956 
	C449.519958,441.757355 449.444519,447.105347 448.424835,451.069733 
	C448.264984,451.691071 448.386444,452.384796 448.569489,453.792542 
M595.428223,410.499939 
	C597.363586,406.271973 600.973572,403.290222 603.987793,399.472595 
	C598.343933,395.476440 595.313171,390.238434 595.927185,381.988647 
	C590.021667,388.160309 583.354065,390.862671 578.661987,396.388458 
	C580.168762,398.526794 582.139282,400.237457 582.705017,402.328217 
	C584.454590,408.794189 590.476685,408.655426 595.428223,410.499939 
M611.600037,461.550781 
	C617.124512,458.867371 617.127258,458.860260 614.041626,454.712677 
	C612.018066,455.708557 609.969788,456.780640 607.869812,457.739319 
	C596.953369,462.722900 594.912292,465.142761 587.580750,453.680267 
	C585.167542,449.907440 582.573059,445.378510 576.460999,445.019012 
	C579.840149,453.814148 586.041260,460.856659 586.901733,471.410889 
	C589.784546,466.430695 593.152100,463.647034 597.070557,463.582916 
	C601.814087,463.505310 606.197754,461.835052 611.600037,461.550781 
M541.038452,517.372375 
	C540.917786,515.388489 540.616333,513.395630 540.715027,511.422699 
	C540.905823,507.610901 539.651306,506.814056 535.986023,508.148804 
	C530.492126,510.149445 524.604492,510.335388 518.816406,510.344330 
	C513.062073,510.353241 505.931671,504.305450 504.336365,498.474335 
	C503.657532,498.904449 503.561310,499.988892 502.978058,500.431488 
	C501.175598,501.799286 499.000641,502.498169 499.977356,505.750244 
	C500.928955,508.918945 503.172913,508.529602 505.430176,508.832703 
	C507.397064,509.096832 509.353973,509.521759 511.274597,510.029449 
	C521.087952,512.623230 530.888000,515.266846 541.038452,517.372375 
M492.084839,430.442749 
	C490.000061,429.059113 488.568604,426.684113 485.454102,425.785553 
	C485.003387,432.382996 487.120697,438.149597 487.304993,444.315887 
	C492.297791,442.540497 496.893250,440.906433 501.814453,439.156494 
	C498.455627,436.140167 495.537781,433.519867 492.084839,430.442749 
M488.376465,508.617340 
	C487.419159,508.813263 486.379669,508.894318 486.099457,510.771149 
	C488.351868,511.423553 490.591644,513.332092 493.059540,511.488922 
	C494.291626,510.568756 493.651764,508.688843 492.645111,507.479279 
	C490.758972,505.212830 489.983490,507.684387 488.376465,508.617340 
M654.028870,418.736572 
	C653.862000,419.642548 653.053833,420.557770 654.377625,421.755615 
	C655.318237,417.429749 657.009216,413.499847 656.599182,408.515503 
	C654.673462,411.844086 655.570435,415.236420 654.028870,418.736572 
z"/>
<path fill="#000000" opacity="1.000000" stroke="none" 
	d="
M664.189453,283.249756 
	C662.597961,286.348816 660.856506,288.569366 657.440796,286.445221 
	C654.247131,284.459137 652.945984,276.579254 655.892578,274.417633 
	C660.492981,271.042725 663.544861,267.008026 665.048950,261.562347 
	C665.332642,260.535278 666.188965,259.741730 665.979980,258.422760 
	C665.189087,253.430008 667.747375,251.755966 672.399475,252.422928 
	C673.692444,250.600052 672.105774,247.247208 675.348633,246.725372 
	C678.136902,246.276703 679.927368,248.145462 681.744080,249.913742 
	C687.286072,255.308014 691.362549,261.760651 694.677185,268.628082 
	C697.254883,273.968811 695.976990,275.541718 690.200134,275.151764 
	C689.256470,275.088043 688.710022,275.449066 688.014221,275.943695 
	C682.724182,279.704285 676.624695,280.289062 670.374329,280.640472 
	C668.357056,280.753906 666.412292,282.155090 664.189453,283.249756 
z"/>
<path fill="#000000" opacity="1.000000" stroke="none" 
	d="
M834.699341,617.837891 
	C832.000732,618.207520 829.695007,618.167847 827.408875,617.669983 
	C825.993591,617.361755 824.935974,616.636597 825.044067,614.994080 
	C825.133545,613.633850 826.061951,613.081299 827.284729,612.725525 
	C830.696594,611.732971 834.156372,611.941589 837.584167,612.380066 
	C839.126465,612.577332 841.230774,612.737732 841.367859,614.885132 
	C841.528320,617.397583 839.229187,617.463928 837.546509,617.905518 
	C836.783813,618.105652 835.910767,617.885315 834.699341,617.837891 
z"/>
<path fill="#000000" opacity="1.000000" stroke="none" 
	d="
M195.067047,612.361694 
	C196.599777,612.342590 197.775436,612.056946 198.899353,612.194397 
	C200.534760,612.394348 201.706604,613.460083 201.745285,615.154480 
	C201.787064,616.983765 200.367065,617.958679 198.804733,617.871155 
	C195.028000,617.659546 191.208313,618.425964 187.464233,617.345093 
	C186.266464,616.999268 185.174591,616.639160 185.156921,615.200623 
	C185.139801,613.805481 186.104645,613.043396 187.349625,612.921448 
	C189.791656,612.682190 192.142838,611.307983 195.067047,612.361694 
z"/>
<path fill="#000000" opacity="1.000000" stroke="none" 
	d="
M843.199219,614.276550 
	C844.741455,611.492126 846.713928,611.561584 848.871948,612.738647 
	C849.983215,613.344849 850.648071,614.329041 850.325867,615.622375 
	C849.900146,617.331177 848.474670,617.939270 846.927124,618.054871 
	C844.570068,618.230835 843.084656,617.226501 843.199219,614.276550 
z"/>
<path fill="#000000" opacity="1.000000" stroke="none" 
	d="
M177.408661,612.768921 
	C179.936417,612.596680 182.612717,612.578247 182.629379,615.372253 
	C182.643051,617.664490 179.945663,617.739075 178.308762,617.441406 
	C175.306992,616.895569 174.999741,615.101135 177.408661,612.768921 
z"/>
<path fill="#000000" opacity="1.000000" stroke="none" 
	d="
M542.906006,362.564392 
	C540.143127,363.980743 538.744385,369.001862 535.467590,366.308929 
	C531.739624,363.245300 536.844849,361.059753 537.865295,358.448639 
	C538.447021,356.960083 539.753418,355.746613 540.771240,354.438629 
	C542.157715,352.657013 543.754517,352.689575 544.669983,354.647705 
	C545.862244,357.197693 547.840149,357.703003 550.299194,357.893799 
	C563.108093,358.887756 575.204773,363.038757 587.473816,366.414001 
	C588.421936,366.674805 589.399292,367.039307 590.196716,367.594513 
	C591.913391,368.789612 594.560181,369.889557 593.638672,372.409607 
	C592.560059,375.359161 589.814087,373.677979 587.981567,373.173706 
	C575.235046,369.666290 562.582214,365.821289 549.679138,362.886536 
	C547.532288,362.398224 545.437622,362.172943 542.906006,362.564392 
z"/>
<path fill="#000000" opacity="1.000000" stroke="none" 
	d="
M548.814941,478.332184 
	C549.119141,480.896973 548.079041,482.160309 545.916870,482.430267 
	C543.692566,482.708008 542.851562,481.153168 541.849182,479.504578 
	C538.512878,474.017517 535.682007,468.284393 532.985840,462.468689 
	C531.913269,460.155060 531.281860,457.675995 533.903931,456.428925 
	C536.767029,455.067261 537.866699,457.735718 538.965210,459.789459 
	C542.208679,465.852936 545.456238,471.914215 548.814941,478.332184 
z"/>
<path fill="#000000" opacity="1.000000" stroke="none" 
	d="
M566.919983,468.315918 
	C567.163574,470.438110 566.464172,471.686157 564.706238,471.956787 
	C562.789429,472.251892 561.611450,471.015503 560.769470,469.491577 
	C558.129456,464.713348 555.549927,459.901672 552.902588,455.127594 
	C552.029968,453.554047 551.436584,451.961365 553.140869,450.692108 
	C555.115173,449.221741 556.526733,450.540436 557.765686,452.019501 
	C561.749939,456.775665 564.044067,462.497498 566.919983,468.315918 
z"/>
<path fill="#000000" opacity="1.000000" stroke="none" 
	d="
M618.595703,304.323761 
	C619.946228,305.562073 620.398132,306.787994 619.537048,308.074677 
	C617.626343,310.929626 615.740417,313.818573 613.589539,316.488312 
	C612.452576,317.899536 610.665344,319.016449 608.843567,317.546173 
	C607.005493,316.062866 607.570129,313.837769 608.974182,312.785583 
	C612.403748,310.215515 613.104553,304.745850 618.595703,304.323761 
z"/>
<path fill="#000000" opacity="1.000000" stroke="none" 
	d="
M458.945587,558.729492 
	C461.811462,558.261292 464.754211,554.768005 466.664276,558.551025 
	C468.778503,562.738220 463.830627,562.803528 461.929199,564.587585 
	C461.145203,565.323181 459.900909,565.682007 458.802032,565.943359 
	C456.793945,566.421021 454.680603,566.467896 453.674408,564.238953 
	C452.546814,561.741089 454.485718,560.704773 456.294708,559.772522 
	C457.022980,559.397217 457.806488,559.129089 458.945587,558.729492 
z"/>
<path fill="#000000" opacity="1.000000" stroke="none" 
	d="
M682.809814,587.557129 
	C681.936462,585.207153 681.533875,583.042908 684.166992,582.317383 
	C686.513184,581.670898 687.152893,583.827454 687.847717,585.527588 
	C687.973328,585.834778 688.092041,586.151855 688.156616,586.475830 
	C688.560425,588.501892 690.113831,590.539368 688.130554,592.552307 
	C687.393127,593.300781 686.563293,593.787537 685.464294,593.378967 
	C682.798462,592.387756 683.396545,589.887573 682.809814,587.557129 
z"/>
<path fill="#000000" opacity="1.000000" stroke="none" 
	d="
M680.226746,591.802490 
	C680.765808,594.001892 681.255127,596.139404 678.783325,596.645752 
	C676.490662,597.115234 675.899109,594.868591 675.141479,593.251831 
	C674.867554,592.667236 674.836914,591.964844 674.718262,591.312073 
	C674.340088,589.231873 673.234680,586.460083 676.015930,585.740784 
	C679.157227,584.928467 678.737366,588.255676 679.482971,590.085510 
	C679.670959,590.546936 679.902405,590.990662 680.226746,591.802490 
z"/>
<path fill="#000000" opacity="1.000000" stroke="none" 
	d="
M578.981812,585.260925 
	C579.597534,583.525208 580.028992,581.503540 581.905884,582.348145 
	C584.159790,583.362305 583.965820,585.898071 583.839172,587.974243 
	C583.754944,589.355286 582.743835,590.505493 581.159912,590.244080 
	C578.411316,589.790405 578.656494,587.678528 578.981812,585.260925 
z"/>
<path fill="#000000" opacity="1.000000" stroke="none" 
	d="
M570.749878,585.039368 
	C569.531677,582.559387 570.187439,580.877441 572.167725,579.758972 
	C573.309082,579.114319 574.451477,579.512756 575.128418,580.628906 
	C576.225464,582.437805 575.551575,584.083862 574.416260,585.605347 
	C573.142822,587.311890 571.991211,586.809692 570.749878,585.039368 
z"/>
<path fill="#000000" opacity="1.000000" stroke="none" 
	d="
M602.363403,476.723938 
	C604.445251,476.737976 606.103271,476.692383 607.754761,476.775299 
	C609.247375,476.850281 610.363525,477.604492 610.376282,479.193817 
	C610.389404,480.824799 609.191711,481.503387 607.736084,481.581299 
	C605.928772,481.678101 604.112976,481.636993 602.301147,481.621613 
	C600.589111,481.607086 598.688232,481.509216 598.506348,479.341278 
	C598.313965,477.048340 600.242676,476.890747 602.363403,476.723938 
z"/>
<path fill="#000000" opacity="1.000000" stroke="none" 
	d="
M613.881104,480.543335 
	C614.572815,477.163727 617.605469,476.001526 619.474243,478.082825 
	C620.741943,479.494690 620.150818,480.589874 618.570190,481.080994 
	C617.124817,481.530090 615.602600,481.442932 613.881104,480.543335 
z"/>
<path fill="#000000" opacity="1.000000" stroke="none" 
	d="
M629.058411,439.164520 
	C632.061218,437.356598 634.669189,435.700684 636.795044,433.285248 
	C638.196228,431.693176 640.216125,430.065979 642.300293,432.221558 
	C644.016479,433.996643 643.052917,436.136505 641.588440,437.523529 
	C638.387878,440.554718 635.490540,444.041443 630.910706,445.272766 
	C628.755188,445.852325 626.516113,446.790405 625.330811,444.156158 
	C623.906067,440.989838 626.628052,440.277130 629.058411,439.164520 
z"/>
</svg>